<svg width="25" height="24" viewBox="0 0 25 24" fill="none" xmlns="http://www.w3.org/2000/svg">
<path d="M16.8333 20.2501C16.8333 20.449 16.7543 20.6397 16.6136 20.7804C16.473 20.921 16.2822 21.0001 16.0833 21.0001H2.5833C2.38439 21.0001 2.19362 20.921 2.05297 20.7804C1.91232 20.6397 1.8333 20.449 1.8333 20.2501C1.8333 20.0511 1.91232 19.8604 2.05297 19.7197C2.19362 19.5791 2.38439 19.5001 2.5833 19.5001H16.0833C16.2822 19.5001 16.473 19.5791 16.6136 19.7197C16.7543 19.8604 16.8333 20.0511 16.8333 20.2501ZM23.4249 8.13381L21.6774 5.89412L21.6661 5.88006C21.101 5.18399 20.3043 4.71455 19.4215 4.55756C18.5388 4.40057 17.6291 4.56651 16.8586 5.02506L12.0239 7.91068L6.96705 6.05068C6.79805 5.98767 6.61199 5.98767 6.44299 6.05068L5.7708 6.30662L5.7408 6.31881C5.51084 6.41752 5.30923 6.5722 5.15433 6.76875C4.99944 6.96531 4.89618 7.19749 4.85397 7.44416C4.81175 7.69082 4.83192 7.94413 4.91264 8.18101C4.99336 8.41789 5.13206 8.63081 5.31611 8.80037L7.36455 10.7869L5.47361 11.9307L2.82424 11.0363C2.63673 10.9731 2.43185 10.9866 2.25424 11.0738L1.97299 11.2116C1.74797 11.3122 1.5512 11.4666 1.40007 11.6613C1.24894 11.856 1.14811 12.0849 1.1065 12.3278C1.06488 12.5708 1.08377 12.8202 1.16148 13.0541C1.23919 13.288 1.37333 13.4991 1.55205 13.6688L4.92705 16.9754L4.9383 16.9866C5.62963 17.6401 6.54453 18.0046 7.4958 18.0057C8.16361 18.0046 8.81912 17.826 9.39518 17.4882L23.2149 9.23818C23.3061 9.18369 23.3846 9.11044 23.4454 9.02329C23.5061 8.93614 23.5477 8.83709 23.5673 8.73267C23.5869 8.62826 23.584 8.52088 23.559 8.41764C23.534 8.3144 23.4873 8.21765 23.4221 8.13381H23.4249Z" fill="white"/>
</svg>
