<svg width="25" height="24" viewBox="0 0 25 24" fill="none" xmlns="http://www.w3.org/2000/svg">
<path d="M23.1411 19.5H21.6664V9.00005C21.6664 8.60222 21.5084 8.22069 21.2271 7.93939C20.9458 7.65808 20.5643 7.50005 20.1664 7.50005H16.0414C15.942 7.50005 15.8466 7.53956 15.7763 7.60988C15.706 7.68021 15.6664 7.77559 15.6664 7.87505V19.5H14.1664V3.03849C14.1689 2.80484 14.1182 2.5737 14.0182 2.36255C13.9181 2.1514 13.7713 1.96577 13.5889 1.81973C13.3403 1.62589 13.0369 1.51532 12.7219 1.5037C12.4069 1.49209 12.0962 1.58004 11.8339 1.75505L4.33394 6.75005C4.1282 6.88732 3.95959 7.07333 3.84313 7.29153C3.72667 7.50973 3.66597 7.75334 3.66644 8.00067V19.5H2.19176C1.99794 19.4972 1.81024 19.5678 1.66639 19.6978C1.52255 19.8277 1.43325 20.0073 1.41644 20.2004C1.40963 20.3029 1.42399 20.4058 1.45861 20.5027C1.49324 20.5995 1.54741 20.6881 1.61774 20.7631C1.68808 20.8381 1.77308 20.8978 1.86747 20.9386C1.96186 20.9794 2.06363 21.0003 2.16644 21H23.1664C23.2693 21.0003 23.371 20.9794 23.4654 20.9386C23.5598 20.8978 23.6448 20.8381 23.7151 20.7631C23.7855 20.6881 23.8396 20.5995 23.8743 20.5027C23.9089 20.4058 23.9233 20.3029 23.9164 20.2004C23.8996 20.0073 23.8103 19.8277 23.6665 19.6978C23.5226 19.5678 23.3349 19.4972 23.1411 19.5ZM7.79144 17.25C7.79167 17.3529 7.77075 17.4546 7.72999 17.549C7.68923 17.6434 7.6295 17.7284 7.55451 17.7987C7.47951 17.8691 7.39086 17.9232 7.29405 17.9579C7.19724 17.9925 7.09435 18.0069 6.99176 18C6.79849 17.9832 6.61877 17.8938 6.48882 17.7498C6.35887 17.6057 6.28834 17.4178 6.29144 17.2238V15.7754C6.2888 15.5816 6.35952 15.394 6.4894 15.2502C6.61928 15.1064 6.79873 15.0171 6.99176 15C7.09435 14.9932 7.19724 15.0076 7.29405 15.0422C7.39086 15.0768 7.47951 15.131 7.55451 15.2013C7.6295 15.2717 7.68923 15.3567 7.72999 15.4511C7.77075 15.5455 7.79167 15.6472 7.79144 15.75V17.25ZM7.79144 12C7.79167 12.1029 7.77075 12.2046 7.72999 12.299C7.68923 12.3934 7.6295 12.4784 7.55451 12.5487C7.47951 12.6191 7.39086 12.6732 7.29405 12.7079C7.19724 12.7425 7.09435 12.7569 6.99176 12.75C6.79857 12.733 6.61898 12.6435 6.48908 12.4995C6.35917 12.3555 6.28856 12.1677 6.29144 11.9738V10.5254C6.2888 10.3316 6.35952 10.144 6.4894 10.0002C6.61928 9.85643 6.79873 9.76706 6.99176 9.75005C7.09435 9.74324 7.19724 9.75759 7.29405 9.79222C7.39086 9.82685 7.47951 9.88101 7.55451 9.95135C7.6295 10.0217 7.68923 10.1067 7.72999 10.2011C7.77075 10.2955 7.79167 10.3972 7.79144 10.5V12ZM11.5414 17.25C11.5417 17.3529 11.5208 17.4546 11.48 17.549C11.4392 17.6434 11.3795 17.7284 11.3045 17.7987C11.2295 17.8691 11.1409 17.9232 11.044 17.9579C10.9472 17.9925 10.8443 18.0069 10.7418 18C10.5488 17.9833 10.3694 17.8941 10.2395 17.7504C10.1096 17.6068 10.0388 17.4193 10.0414 17.2257V15.7754C10.039 15.5818 10.1099 15.3944 10.2397 15.2508C10.3696 15.1072 10.5489 15.018 10.7418 15.001C10.8443 14.9942 10.9472 15.0085 11.044 15.0432C11.1409 15.0778 11.2295 15.132 11.3045 15.2023C11.3795 15.2726 11.4392 15.3576 11.48 15.452C11.5208 15.5464 11.5417 15.6482 11.5414 15.751V17.25ZM11.5414 12C11.5417 12.1029 11.5208 12.2046 11.48 12.299C11.4392 12.3934 11.3795 12.4784 11.3045 12.5487C11.2295 12.6191 11.1409 12.6732 11.044 12.7079C10.9472 12.7425 10.8443 12.7569 10.7418 12.75C10.5489 12.733 10.3696 12.6438 10.2397 12.5002C10.1099 12.3566 10.039 12.1693 10.0414 11.9757V10.5254C10.039 10.3318 10.1099 10.1444 10.2397 10.0008C10.3696 9.85723 10.5489 9.76799 10.7418 9.75099C10.8443 9.74417 10.9472 9.75853 11.044 9.79316C11.1409 9.82779 11.2295 9.88195 11.3045 9.95228C11.3795 10.0226 11.4392 10.1076 11.48 10.202C11.5208 10.2964 11.5417 10.3982 11.5414 10.501V12Z" fill="white"/>
</svg>
