<svg width="25" height="24" viewBox="0 0 25 24" fill="none" xmlns="http://www.w3.org/2000/svg">
<path d="M23.2603 6.53063L21.4471 4.71938C21.3064 4.57864 21.1155 4.49958 20.9165 4.49958C20.7175 4.49958 20.5266 4.57864 20.3859 4.71938C20.2451 4.86011 20.1661 5.05098 20.1661 5.25C20.1661 5.44902 20.2451 5.63989 20.3859 5.78062L22.1971 7.59375C22.3371 7.73383 22.4159 7.92356 22.4165 8.12156V15.75C22.4165 15.9489 22.3375 16.1397 22.1968 16.2803C22.0562 16.421 21.8654 16.5 21.6665 16.5C21.4676 16.5 21.2768 16.421 21.1362 16.2803C20.9955 16.1397 20.9165 15.9489 20.9165 15.75V12C20.9165 11.4033 20.6795 10.831 20.2575 10.409C19.8355 9.98705 19.2632 9.75 18.6665 9.75H17.1665V5.25C17.1665 4.65326 16.9295 4.08097 16.5075 3.65901C16.0855 3.23705 15.5132 3 14.9165 3H7.4165C6.81977 3 6.24747 3.23705 5.82551 3.65901C5.40356 4.08097 5.1665 4.65326 5.1665 5.25V19.5H3.6665C3.46759 19.5 3.27683 19.579 3.13617 19.7197C2.99552 19.8603 2.9165 20.0511 2.9165 20.25C2.9165 20.4489 2.99552 20.6397 3.13617 20.7803C3.27683 20.921 3.46759 21 3.6665 21H18.6665C18.8654 21 19.0562 20.921 19.1968 20.7803C19.3375 20.6397 19.4165 20.4489 19.4165 20.25C19.4165 20.0511 19.3375 19.8603 19.1968 19.7197C19.0562 19.579 18.8654 19.5 18.6665 19.5H17.1665V11.25H18.6665C18.8654 11.25 19.0562 11.329 19.1968 11.4697C19.3375 11.6103 19.4165 11.8011 19.4165 12V15.75C19.4165 16.3467 19.6536 16.919 20.0755 17.341C20.4975 17.7629 21.0698 18 21.6665 18C22.2632 18 22.8355 17.7629 23.2575 17.341C23.6795 16.919 23.9165 16.3467 23.9165 15.75V8.12156C23.9176 7.82618 23.8602 7.5335 23.7476 7.26043C23.6349 6.98736 23.4693 6.73931 23.2603 6.53063ZM13.3631 12.2812L11.8631 16.0312C11.7885 16.216 11.6435 16.3635 11.4602 16.4414C11.2768 16.5193 11.07 16.5212 10.8853 16.4466C10.7005 16.372 10.553 16.227 10.4751 16.0437C10.3972 15.8603 10.3953 15.6535 10.4699 15.4688L11.5584 12.75H9.6665C9.54358 12.7502 9.42249 12.7202 9.31389 12.6626C9.20529 12.6051 9.11251 12.5217 9.0437 12.4198C8.9749 12.3179 8.93219 12.2007 8.91933 12.0785C8.90646 11.9562 8.92385 11.8327 8.96994 11.7188L10.4699 7.96875C10.5069 7.87728 10.5615 7.79397 10.6306 7.7236C10.6997 7.65322 10.782 7.59715 10.8728 7.55858C10.9636 7.52002 11.0611 7.49971 11.1598 7.49883C11.2584 7.49795 11.3563 7.5165 11.4478 7.55344C11.5392 7.59037 11.6225 7.64496 11.6929 7.71409C11.7633 7.78322 11.8194 7.86553 11.8579 7.95633C11.8965 8.04713 11.9168 8.14463 11.9177 8.24328C11.9186 8.34192 11.9 8.43978 11.8631 8.53125L10.7746 11.25H12.6665C12.7894 11.2498 12.9105 11.2798 13.0191 11.3374C13.1277 11.3949 13.2205 11.4783 13.2893 11.5802C13.3581 11.6821 13.4008 11.7993 13.4137 11.9215C13.4265 12.0438 13.4092 12.1673 13.3631 12.2812Z" fill="white"/>
</svg>
