<svg width="38" height="36" viewBox="0 0 38 36" fill="none" xmlns="http://www.w3.org/2000/svg">
<path d="M29.9617 0.5H19.625L26.2023 9.27031L29.9617 0.5ZM8.03828 0.5L11.7977 9.27031L18.375 0.5H8.03828ZM19 3.83359L14 10.5H24L19 3.83359ZM32.043 1.98906L28.3953 10.5H37.125L32.043 1.98906ZM5.95703 1.98906L0.796875 10.5H9.60469L5.95703 1.98906ZM10.4594 13H0.875L18.2812 35.5H18.3227L10.4594 13ZM27.5406 13L19.6773 35.5H19.7188L37.125 13H27.5406ZM24.7336 13H13.2664L19 29.25L24.7336 13Z" fill="#001F3D"/>
</svg>
