<svg width="25" height="24" viewBox="0 0 25 24" fill="none" xmlns="http://www.w3.org/2000/svg">
<path d="M16.6458 4.4766C15.4877 3.13919 14.1844 1.9349 12.7598 0.885971C12.6337 0.797632 12.4835 0.750244 12.3295 0.750244C12.1755 0.750244 12.0253 0.797632 11.8992 0.885971C10.4772 1.93533 9.17643 3.13961 8.02075 4.4766C5.44356 7.43628 4.08325 10.5563 4.08325 13.5C4.08325 15.6881 4.95245 17.7865 6.49962 19.3337C8.0468 20.8808 10.1452 21.75 12.3333 21.75C14.5213 21.75 16.6197 20.8808 18.1669 19.3337C19.7141 17.7865 20.5833 15.6881 20.5833 13.5C20.5833 10.5563 19.2229 7.43628 16.6458 4.4766ZM17.5692 14.3757C17.3747 15.4619 16.8521 16.4626 16.0717 17.2428C15.2913 18.0231 14.2905 18.5455 13.2042 18.7397C13.1642 18.7461 13.1238 18.7496 13.0833 18.75C12.8951 18.75 12.7139 18.6792 12.5755 18.5518C12.4371 18.4244 12.3516 18.2496 12.336 18.0621C12.3204 17.8746 12.3759 17.6881 12.4914 17.5396C12.6069 17.3911 12.774 17.2914 12.9595 17.2603C14.5129 16.9988 15.8311 15.6807 16.0945 14.1244C16.1278 13.9282 16.2377 13.7533 16.4 13.6382C16.5623 13.523 16.7636 13.477 16.9598 13.5103C17.156 13.5437 17.3309 13.6535 17.4461 13.8158C17.5612 13.9781 17.6072 14.1795 17.5739 14.3757H17.5692Z" fill="white"/>
</svg>
