<svg width="43" height="40" viewBox="0 0 43 40" fill="none" xmlns="http://www.w3.org/2000/svg">
<path d="M20.0015 20C20.0015 18.4227 19.4434 17.0759 18.3274 15.9599C17.2113 14.8438 15.8646 14.2857 14.2872 14.2857C12.7098 14.2857 11.3631 14.8438 10.247 15.9599C9.13093 17.0759 8.57289 18.4227 8.57289 20C8.57289 21.5774 9.13093 22.9241 10.247 24.0402C11.3631 25.1563 12.7098 25.7143 14.2872 25.7143C15.8646 25.7143 17.2113 25.1563 18.3274 24.0402C19.4434 22.9241 20.0015 21.5774 20.0015 20ZM37.1443 31.4286C37.1443 30.6548 36.8616 29.9852 36.2961 29.4197C35.7306 28.8542 35.061 28.5715 34.2872 28.5715C33.5134 28.5715 32.8437 28.8542 32.2783 29.4197C31.7128 29.9852 31.43 30.6548 31.43 31.4286C31.43 32.2173 31.7091 32.8907 32.2671 33.4487C32.8251 34.0067 33.4985 34.2858 34.2872 34.2858C35.0759 34.2858 35.7492 34.0067 36.3073 33.4487C36.8653 32.8907 37.1443 32.2173 37.1443 31.4286ZM37.1443 8.57146C37.1443 7.79765 36.8616 7.12801 36.2961 6.56253C35.7306 5.99706 35.061 5.71432 34.2872 5.71432C33.5134 5.71432 32.8437 5.99706 32.2783 6.56253C31.7128 7.12801 31.43 7.79765 31.43 8.57146C31.43 9.36015 31.7091 10.0335 32.2671 10.5916C32.8251 11.1496 33.4985 11.4286 34.2872 11.4286C35.0759 11.4286 35.7492 11.1496 36.3073 10.5916C36.8653 10.0335 37.1443 9.36015 37.1443 8.57146ZM28.5729 17.9688V22.0982C28.5729 22.2471 28.5208 22.3921 28.4166 22.5335C28.3125 22.6749 28.1934 22.753 28.0595 22.7679L24.5997 23.3036C24.436 23.8244 24.1979 24.3899 23.8854 25C24.3913 25.7143 25.061 26.57 25.8943 27.567C25.9985 27.7307 26.0506 27.8795 26.0506 28.0134C26.0506 28.192 25.9985 28.3334 25.8943 28.4375C25.5521 28.884 24.9382 29.5499 24.0528 30.4353C23.1674 31.3207 22.5833 31.7634 22.3006 31.7634C22.1369 31.7634 21.9806 31.7113 21.8318 31.6072L19.2649 29.5982C18.7143 29.881 18.1413 30.1116 17.5461 30.2902C17.3824 31.8974 17.2113 33.0506 17.0327 33.75C16.9285 34.1072 16.7053 34.2858 16.3631 34.2858H12.2113C12.0476 34.2858 11.8988 34.2299 11.7649 34.1183C11.6309 34.0067 11.5565 33.8765 11.5416 33.7277L11.0283 30.3125C10.5223 30.1637 9.96426 29.9331 9.35414 29.6206L6.72021 31.6072C6.61605 31.7113 6.46724 31.7634 6.27379 31.7634C6.1101 31.7634 5.95385 31.7039 5.80504 31.5849C3.66218 29.6057 2.59075 28.4152 2.59075 28.0134C2.59075 27.8795 2.64283 27.7381 2.747 27.5893C2.89581 27.381 3.20087 26.9866 3.66218 26.4063C4.12349 25.8259 4.47319 25.3721 4.71129 25.0447C4.36902 24.3899 4.10861 23.7798 3.93004 23.2143L0.537179 22.6786C0.38837 22.6637 0.261882 22.593 0.157715 22.4666C0.0535482 22.3401 0.00146484 22.195 0.00146484 22.0313V17.9018C0.00146484 17.753 0.0535482 17.6079 0.157715 17.4666C0.261882 17.3252 0.380929 17.2471 0.514858 17.2322L3.97468 16.6965C4.13837 16.1756 4.37646 15.6102 4.68896 15C4.18301 14.2857 3.51337 13.4301 2.68004 12.4331C2.57587 12.2694 2.52379 12.1206 2.52379 11.9866C2.52379 11.8081 2.57587 11.6593 2.68004 11.5402C3.00742 11.0938 3.61754 10.4316 4.51039 9.55361C5.40325 8.67563 5.99105 8.23664 6.27379 8.23664C6.43748 8.23664 6.59373 8.28873 6.74254 8.39289L9.3095 10.4018C9.81545 10.134 10.3884 9.89587 11.0283 9.68754C11.1919 8.08039 11.3631 6.93456 11.5416 6.25003C11.6458 5.89289 11.869 5.71432 12.2113 5.71432H16.3631C16.5268 5.71432 16.6756 5.77012 16.8095 5.88173C16.9434 5.99334 17.0178 6.12355 17.0327 6.27236L17.5461 9.68754C18.0521 9.83634 18.6101 10.067 19.2202 10.3795L21.8541 8.39289C21.9732 8.28873 22.122 8.23664 22.3006 8.23664C22.4643 8.23664 22.6205 8.29617 22.7693 8.41521C24.9122 10.3944 25.9836 11.5849 25.9836 11.9866C25.9836 12.1057 25.9315 12.2471 25.8274 12.4107C25.6488 12.6488 25.3363 13.0506 24.8899 13.6161C24.4434 14.1816 24.1086 14.628 23.8854 14.9554C24.2277 15.6697 24.4806 16.2798 24.6443 16.7857L28.0372 17.2991C28.186 17.3289 28.3125 17.407 28.4166 17.5335C28.5208 17.66 28.5729 17.8051 28.5729 17.9688ZM42.8586 29.8661V32.9911C42.8586 33.2292 41.75 33.4599 39.5327 33.6831C39.3541 34.0849 39.1309 34.4718 38.8631 34.8438C39.622 36.5253 40.0015 37.5521 40.0015 37.9241C40.0015 37.9837 39.9717 38.0358 39.9122 38.0804C38.0967 39.1369 37.1741 39.6652 37.1443 39.6652C37.0253 39.6652 36.683 39.3155 36.1175 38.6161C35.5521 37.9167 35.1652 37.4108 34.9568 37.0983C34.6592 37.128 34.436 37.1429 34.2872 37.1429C34.1384 37.1429 33.9152 37.128 33.6175 37.0983C33.4092 37.4108 33.0223 37.9167 32.4568 38.6161C31.8913 39.3155 31.5491 39.6652 31.43 39.6652C31.4003 39.6652 30.4777 39.1369 28.6622 38.0804C28.6027 38.0358 28.5729 37.9837 28.5729 37.9241C28.5729 37.5521 28.9524 36.5253 29.7113 34.8438C29.4434 34.4718 29.2202 34.0849 29.0416 33.6831C26.8244 33.4599 25.7158 33.2292 25.7158 32.9911V29.8661C25.7158 29.628 26.8244 29.3974 29.0416 29.1741C29.2351 28.7426 29.4583 28.3557 29.7113 28.0134C28.9524 26.3319 28.5729 25.3051 28.5729 24.9331C28.5729 24.8735 28.6027 24.8215 28.6622 24.7768C28.7217 24.7471 28.9821 24.5982 29.4434 24.3304C29.9047 24.0625 30.3437 23.8096 30.7604 23.5715C31.1771 23.3334 31.4003 23.2143 31.43 23.2143C31.5491 23.2143 31.8913 23.5603 32.4568 24.2523C33.0223 24.9442 33.4092 25.4465 33.6175 25.759C33.9152 25.7292 34.1384 25.7143 34.2872 25.7143C34.436 25.7143 34.6592 25.7292 34.9568 25.759C35.7158 24.7024 36.4003 23.8691 37.0104 23.259L37.1443 23.2143C37.2038 23.2143 38.1265 23.7352 39.9122 24.7768C39.9717 24.8215 40.0015 24.8735 40.0015 24.9331C40.0015 25.3051 39.622 26.3319 38.8631 28.0134C39.1161 28.3557 39.3393 28.7426 39.5327 29.1741C41.75 29.3974 42.8586 29.628 42.8586 29.8661ZM42.8586 7.00896V10.134C42.8586 10.3721 41.75 10.6027 39.5327 10.8259C39.3541 11.2277 39.1309 11.6146 38.8631 11.9866C39.622 13.6682 40.0015 14.695 40.0015 15.067C40.0015 15.1265 39.9717 15.1786 39.9122 15.2232C38.0967 16.2798 37.1741 16.8081 37.1443 16.8081C37.0253 16.8081 36.683 16.4584 36.1175 15.759C35.5521 15.0596 35.1652 14.5536 34.9568 14.2411C34.6592 14.2709 34.436 14.2857 34.2872 14.2857C34.1384 14.2857 33.9152 14.2709 33.6175 14.2411C33.4092 14.5536 33.0223 15.0596 32.4568 15.759C31.8913 16.4584 31.5491 16.8081 31.43 16.8081C31.4003 16.8081 30.4777 16.2798 28.6622 15.2232C28.6027 15.1786 28.5729 15.1265 28.5729 15.067C28.5729 14.695 28.9524 13.6682 29.7113 11.9866C29.4434 11.6146 29.2202 11.2277 29.0416 10.8259C26.8244 10.6027 25.7158 10.3721 25.7158 10.134V7.00896C25.7158 6.77087 26.8244 6.54021 29.0416 6.317C29.2351 5.88545 29.4583 5.49855 29.7113 5.15628C28.9524 3.47474 28.5729 2.44795 28.5729 2.07593C28.5729 2.0164 28.6027 1.96432 28.6622 1.91968C28.7217 1.88992 28.9821 1.74111 29.4434 1.47325C29.9047 1.20539 30.3437 0.952416 30.7604 0.714321C31.1771 0.476225 31.4003 0.357178 31.43 0.357178C31.5491 0.357178 31.8913 0.70316 32.4568 1.39512C33.0223 2.08709 33.4092 2.58932 33.6175 2.90182C33.9152 2.87206 34.1384 2.85718 34.2872 2.85718C34.436 2.85718 34.6592 2.87206 34.9568 2.90182C35.7158 1.84527 36.4003 1.01194 37.0104 0.401821L37.1443 0.357178C37.2038 0.357178 38.1265 0.878011 39.9122 1.91968C39.9717 1.96432 40.0015 2.0164 40.0015 2.07593C40.0015 2.44795 39.622 3.47474 38.8631 5.15628C39.1161 5.49855 39.3393 5.88545 39.5327 6.317C41.75 6.54021 42.8586 6.77087 42.8586 7.00896Z" fill="#001F3D"/>
</svg>
