<svg width="28" height="28" viewBox="0 0 28 28" fill="none" xmlns="http://www.w3.org/2000/svg">
<path d="M24.267 9.09563C25.4812 11.6351 25.7117 14.5343 24.914 17.2338C24.1163 19.9332 22.347 22.2414 19.9475 23.713C17.548 25.1847 14.6884 25.7153 11.9207 25.2025C9.153 24.6898 6.67332 23.17 4.96025 20.9364C3.24719 18.7029 2.42218 15.914 2.64446 13.108C2.86674 10.302 4.12055 7.67772 6.16389 5.74176C8.20724 3.8058 10.8953 2.69536 13.7092 2.62474C16.5231 2.55413 19.2635 3.52835 21.4014 5.35938L23.8809 2.87876C24.0451 2.71457 24.2678 2.62233 24.5 2.62233C24.7322 2.62233 24.9548 2.71457 25.119 2.87876C25.2832 3.04294 25.3755 3.26563 25.3755 3.49782C25.3755 3.73001 25.2832 3.9527 25.119 4.11688L14.619 14.6169C14.4548 14.7811 14.2322 14.8733 14 14.8733C13.7678 14.8733 13.5451 14.7811 13.3809 14.6169C13.2167 14.4527 13.1245 14.23 13.1245 13.9978C13.1245 13.7656 13.2167 13.5429 13.3809 13.3788L16.4128 10.3469C15.5911 9.80346 14.6101 9.55325 13.6285 9.63676C12.6469 9.72027 11.7223 10.1326 11.0042 10.807C10.2861 11.4815 9.81671 12.3785 9.6719 13.3529C9.5271 14.3273 9.71539 15.3221 10.2063 16.1762C10.6972 17.0303 11.462 17.6937 12.3769 18.059C13.2918 18.4244 14.3032 18.4703 15.2474 18.1892C16.1916 17.9082 17.0133 17.3168 17.5795 16.5107C18.1457 15.7045 18.4233 14.7309 18.3673 13.7474C18.3608 13.6324 18.3771 13.5174 18.4151 13.4088C18.4531 13.3001 18.5121 13.2 18.5888 13.1142C18.6655 13.0284 18.7583 12.9585 18.862 12.9086C18.9657 12.8586 19.0782 12.8296 19.1931 12.8231C19.4252 12.8101 19.6529 12.8897 19.8262 13.0446C19.912 13.1213 19.9819 13.2141 20.0319 13.3178C20.0818 13.4215 20.1108 13.534 20.1173 13.6489C20.1971 15.041 19.7995 16.4187 18.9902 17.5542C18.1809 18.6897 17.0084 19.5151 15.6665 19.8939C14.3245 20.2728 12.8935 20.1824 11.6099 19.6377C10.3263 19.0931 9.26692 18.1268 8.60692 16.8985C7.94691 15.6702 7.72577 14.2534 7.98003 12.8824C8.23429 11.5114 8.94875 10.2682 10.0053 9.35827C11.0619 8.44833 12.3973 7.92613 13.7908 7.87797C15.1844 7.82982 16.5527 8.2586 17.6695 9.09345L20.1578 6.60516C18.3343 5.09119 16.0157 4.30431 13.6474 4.39565C11.2791 4.487 9.02802 5.45012 7.32654 7.10005C5.62507 8.74998 4.59317 10.9704 4.42904 13.3347C4.26491 15.6991 4.98012 18.0408 6.43729 19.91C7.89447 21.7792 9.99087 23.0441 12.3239 23.4618C14.6568 23.8795 17.0619 23.4205 19.0771 22.173C21.0923 20.9255 22.5755 18.9775 23.2419 16.703C23.9083 14.4286 23.7109 11.9881 22.6876 9.85032C22.5875 9.64088 22.5748 9.40027 22.6521 9.18141C22.7294 8.96254 22.8905 8.78337 23.1 8.68329C23.3094 8.58321 23.55 8.57043 23.7689 8.64776C23.9877 8.72509 24.1669 8.8862 24.267 9.09563Z" fill="#00101F"/>
</svg>
